# xmcd
#
# Track frame offsets:
#	150
#	10700
#	21405
#	31808
#	43457
#	55201
#	65044
#	76021
#	87951
#	98182
#	109672
#	120392
#	132794
#	143169
#
# Disc length: 2056 seconds
#
# Revision: 0
# Processed by: cddbd v1.5.1PL0 Copyright (c) Steve Scherf et al.
# Submitted via: dBpowerAMP V4.0
#
DISCID=b308060e
DTITLE=Patsy Cline - Country Sweetheart
DYEAR=2003
DGENRE=Country
TTITLE0=Honky Tonk Merry Go Round
TTITLE1=I Cried All The Way To The Altar
TTITLE2=Lovesick Blues
TTITLE3=Walkin' After Midnight
TTITLE4=If I Could Stay Asleep
TTITLE5=Turn The Cards Slowly
TTITLE6=Stop The World And Let Me Off
TTITLE7=Today, Tomorrow And Forever
TTITLE8=Pick Me Up On Your Way Down
TTITLE9=Let The Teardrops Fall
TTITLE10=I Can See An Angel
TTITLE11=A Poor Man's Roses
TTITLE12=I Love You Honey
TTITLE13=Hungry For Love
EXTD=
EXTT0=
EXTT1=
EXTT2=
EXTT3=
EXTT4=
EXTT5=
EXTT6=
EXTT7=
EXTT8=
EXTT9=
EXTT10=
EXTT11=
EXTT12=
EXTT13=
PLAYORDER=
